<?xml version="1.0" encoding="utf-8"?>
<!-- Generator: Adobe Illustrator 18.1.1, SVG Export Plug-In . SVG Version: 6.00 Build 0)  -->
<svg version="1.1" id="Layer_1" xmlns="http://www.w3.org/2000/svg" xmlns:xlink="http://www.w3.org/1999/xlink" x="0px" y="0px"
	 viewBox="0 0 350 150" enable-background="new 0 0 350 150" xml:space="preserve">
<g>
	<g>
		<path fill="none" stroke="#E7F5FD" stroke-miterlimit="10" d="M426.9,97.3l18.4-46.5l-18-8l-22.3,44.8l0,0
			c1.1,4.4,4.1,8.2,8.5,10.2C418,99.7,422.9,99.4,426.9,97.3L426.9,97.3z"/>
		<line fill="none" stroke="#E7F5FD" stroke-miterlimit="10" x1="413" y1="97.7" x2="403.6" y2="118.8"/>
		<path fill="none" stroke="#E7F5FD" stroke-miterlimit="10" d="M412,126.7c-5.9-8.1-10.7-10.3-20.2-9"/>
	</g>
	<path fill="none" stroke="#E7F5FD" stroke-miterlimit="10" d="M411.5,74.4c1.6-0.2,3.3-0.4,4.6,0.5c1.2,0.9,1.7,2.5,2.5,3.8
		c1.3,2,3.7,3,6.1,3s4.7-0.8,6.7-2c0.6-0.3,1.2-0.7,1.9-0.6"/>
</g>
<g>
	<g>
		<path fill="none" stroke="#E7F5FD" stroke-miterlimit="10" d="M494,79.3l-26.9-42.2l-17,9.9l23.2,44.3l0,0c4.2,1.7,9,1.5,13.2-0.9
			C490.8,87.9,493.4,83.8,494,79.3L494,79.3z"/>
		<line fill="none" stroke="#E7F5FD" stroke-miterlimit="10" x1="486.2" y1="90.8" x2="497.8" y2="110.7"/>
		<path fill="none" stroke="#E7F5FD" stroke-miterlimit="10" d="M509.1,108.6c-10,0.1-14.6,2.6-19.2,11.1"/>
	</g>
	<path fill="none" stroke="#E7F5FD" stroke-miterlimit="10" d="M461.4,68.4c1.8-0.7,3.4-2,5.3-2.6c2.4-0.8,5.2-0.4,7.3,1.1
		c1,0.8,1.9,1.8,3.1,2.3c0.9,0.4,1.9,0.5,2.9,0.5c2.6,0,5.2-0.5,7.5-1.6"/>
</g>
<polygon fill="none" stroke="#E7F5FD" stroke-miterlimit="10" points="0,149.9 24.8,107 49.5,149.9 "/>
<polygon opacity="0.8" fill="none" stroke="#E7F5FD" stroke-miterlimit="10" points="50.3,149.9 75.1,107 99.8,149.9 "/>
<polygon opacity="0.6" fill="none" stroke="#E7F5FD" stroke-miterlimit="10" points="99.6,149.9 124.4,107 149.2,149.9 "/>
<polygon opacity="0.6" fill="none" stroke="#7BCBBF" stroke-miterlimit="10" points="150.9,149.9 175.7,107 200.5,149.9 "/>
<polygon opacity="0.4" fill="none" stroke="#7BCBBF" stroke-miterlimit="10" points="200.8,149.9 225.5,107 250.3,149.9 "/>
<polygon opacity="0.2" fill="none" stroke="#7BCBBF" stroke-miterlimit="10" points="250.1,149.9 274.8,107 299.6,149.9 "/>
<polygon opacity="0.1" fill="none" stroke="#7BCBBF" stroke-miterlimit="10" points="300.4,149.9 325.2,107 349.9,149.9 "/>
<polygon opacity="0.1" fill="none" stroke="#7BCBBF" stroke-miterlimit="10" points="349.9,64.1 325.2,107 300.4,64.1 "/>
<polygon opacity="0.2" fill="none" stroke="#7BCBBF" stroke-miterlimit="10" points="299.6,64.1 274.8,107 250.1,64.1 "/>
<polygon opacity="0.4" fill="none" stroke="#7BCBBF" stroke-miterlimit="10" points="250.3,64.1 225.5,107 200.8,64.1 "/>
<polygon opacity="0.6" fill="none" stroke="#7BCBBF" stroke-miterlimit="10" points="200.5,64.1 175.7,107 150.9,64.1 "/>
<polygon opacity="0.6" fill="none" stroke="#E7F5FD" stroke-miterlimit="10" points="149.2,64.1 124.4,107 99.6,64.1 "/>
<polygon opacity="0.8" fill="none" stroke="#E7F5FD" stroke-miterlimit="10" points="99.8,64.1 75.1,107 50.3,64.1 "/>
<polygon fill="none" stroke="#E7F5FD" stroke-miterlimit="10" points="49.5,64.1 24.8,107 0,64.1 "/>
<polygon fill="none" stroke="#E7F5FD" stroke-miterlimit="10" points="0,64.5 24.8,21.6 49.5,64.5 "/>
<polygon opacity="0.8" fill="none" stroke="#E7F5FD" stroke-miterlimit="10" points="50.3,64.5 75.1,21.6 99.8,64.5 "/>
<polygon opacity="0.6" fill="none" stroke="#E7F5FD" stroke-miterlimit="10" points="99.6,64.5 124.4,21.6 149.2,64.5 "/>
<polygon opacity="0.6" fill="none" stroke="#7BCBBF" stroke-miterlimit="10" points="150.9,64.5 175.7,21.6 200.5,64.5 "/>
<polygon opacity="0.4" fill="none" stroke="#7BCBBF" stroke-miterlimit="10" points="200.8,64.5 225.5,21.6 250.3,64.5 "/>
<polygon opacity="0.2" fill="none" stroke="#7BCBBF" stroke-miterlimit="10" points="250.1,64.5 274.8,21.6 299.6,64.5 "/>
<polygon opacity="0.1" fill="none" stroke="#7BCBBF" stroke-miterlimit="10" points="300.4,64.5 325.2,21.6 349.9,64.5 "/>
<polygon opacity="0.1" fill="none" stroke="#7BCBBF" stroke-miterlimit="10" points="349.9,-21.1 325.2,21.8 300.4,-21.1 "/>
<polygon opacity="0.2" fill="none" stroke="#7BCBBF" stroke-miterlimit="10" points="299.6,-21.1 274.8,21.8 250.1,-21.1 "/>
<polygon opacity="0.4" fill="none" stroke="#7BCBBF" stroke-miterlimit="10" points="250.3,-21.1 225.5,21.8 200.8,-21.1 "/>
<polygon opacity="0.6" fill="none" stroke="#7BCBBF" stroke-miterlimit="10" points="200.4,-21.1 175.7,21.8 150.9,-21.1 "/>
<polygon opacity="0.6" fill="none" stroke="#E7F5FD" stroke-miterlimit="10" points="149.2,-21.1 124.4,21.8 99.6,-21.1 "/>
<polygon opacity="0.8" fill="none" stroke="#E7F5FD" stroke-miterlimit="10" points="99.8,-21.1 75.1,21.8 50.3,-21.1 "/>
<polygon fill="none" stroke="#E7F5FD" stroke-miterlimit="10" points="49.5,-21.1 24.8,21.8 0,-21.1 "/>
</svg>
