<?xml version="1.0" encoding="utf-8"?>
<!-- Generator: Adobe Illustrator 18.1.1, SVG Export Plug-In . SVG Version: 6.00 Build 0)  -->
<svg version="1.1" id="Layer_1" xmlns="http://www.w3.org/2000/svg" xmlns:xlink="http://www.w3.org/1999/xlink" x="0px" y="0px"
	 viewBox="0 0 283.9 208.1" enable-background="new 0 0 283.9 208.1" xml:space="preserve">
<g>
	<path fill="#7BCBBF" d="M12.2,190.3l3.3-3.1c4.2,5.6,11.4,10,21.3,10c12.4,0,20-6.7,20-15.6c0-20.6-43.3-9.9-43.3-33.5
		c0-9.9,8.4-17.9,22.9-17.9c11.6,0,18.8,4.6,23.1,10.2l-3.1,2.8c-3.9-5.6-11-9.2-20.1-9.2c-11.7,0-18.7,6.1-18.7,14.1
		c0,18.8,43.2,8,43.2,33.5c0,10.5-7.8,19.4-24.1,19.4C26.2,201,18.8,197.9,12.2,190.3z"/>
	<path fill="#7BCBBF" d="M76.7,116.3c0-2.2,2-4,4-4c2.2,0,4,1.8,4,4c0,2.2-1.8,4-4,4C78.7,120.4,76.7,118.6,76.7,116.3z M78.7,199.3
		V132h4.2v67.4H78.7z"/>
	<path fill="#7BCBBF" d="M106.8,199.3v-93h4.2v93H106.8z"/>
	<path fill="#7BCBBF" d="M153.5,199.3L124.6,132h4.9l26.5,62.5l26.4-62.5h4.9l-28.9,67.4H153.5z"/>
	<path fill="#7BCBBF" d="M200.8,199.3V132h4.2v67.4H200.8z"/>
	<path fill="#7BCBBF" d="M269.8,199.3v-8.2c-6.3,6.8-13.8,9.9-23.3,9.9c-11.9,0-23.6-8.1-23.6-22.5s11.6-22.5,23.6-22.5
		c9.5,0,17,3.1,23.3,9.9v-15.2c0-10.9-8.6-16.7-19-16.7c-8.8,0-15.3,3.1-21.6,10.6l-3.2-2.8c6.6-7.7,13.5-11.6,24.8-11.6
		c13.3,0,23.2,6.7,23.2,20.4v48.7H269.8z M269.8,186.9v-16.7c-5.2-6.8-13.4-10.3-22.2-10.3c-12.3,0-20.1,8.2-20.1,18.7
		c0,10.5,7.8,18.7,20.1,18.7C256.4,197.3,264.6,193.8,269.8,186.9z"/>
</g>
<g>
	<path fill="#7BCBBF" d="M18.8,79.8V28H7.6v-3.8h11.2V5.8H23v18.4h13.7V28H23v51.8c0,5.7,2.2,9.8,7.2,9.8c3.4,0,6.3-1.7,8-3.6
		l2.5,3.2c-2.6,2.5-5.4,4.2-10.5,4.2C22.4,93.3,18.8,88.1,18.8,79.8z"/>
	<path fill="#7BCBBF" d="M50,57.9C50,38,62.5,22.6,81.4,22.6c19.1,0,31.4,15.5,31.4,35.3s-12.3,35.4-31.4,35.4
		C62.5,93.3,50,77.7,50,57.9z M108.2,57.9c0-16.3-9.5-31.5-26.8-31.5c-17.2,0-26.8,15.2-26.8,31.5c0,16.5,9.6,31.7,26.8,31.7
		C98.7,89.5,108.2,74.3,108.2,57.9z"/>
	<path fill="#7BCBBF" d="M177.3,91.6v-47c0-14.1-7-18.3-17.4-18.3c-9.2,0-19.1,6-23.9,12.7v52.6h-4.2V24.2h4.2v10.6
		c5-6.1,15.1-12.3,24.4-12.3c13.4,0,21.1,6.1,21.1,22v47H177.3z"/>
	<path fill="#7BCBBF" d="M201.4,114.1c1.5,0.7,4.2,1.1,5.8,1.1c4.5,0,7.5-2,10.6-9.2L224,92l-28.9-67.8h4.9l26.5,62.5l26.4-62.5h4.9
		L222,107.5c-3.2,7.3-8.1,11.4-14.8,11.4c-2.4,0-5-0.4-6.7-1L201.4,114.1z"/>
</g>
<g>
	<path fill="#002E53" d="M274,117.8c-1.7-1.4-3.9-3.5-6.1-5.7c-2.9,3.7-7,6.5-12.7,6.5c-6.8,0-12.5-3.9-12.5-11.4
		c0-6.8,4.7-10.3,9.7-13.1c-2.2-3.4-3.7-6.8-3.7-9.9c0-5.6,4.3-9.6,9.5-9.6c5,0,8.3,2.7,8.3,7.8c0,6.3-5.7,9.2-11.2,12.3
		c2,2.9,4.3,5.6,6,7.3c2.2,2.5,4.3,4.7,6.4,6.8c2.7-4.2,4.3-8.8,5-10.9l2,0.8c-1.3,3.3-2.9,7.9-5.5,11.8c2.4,2.4,5,4.8,8.2,7.5H274z
		 M266.3,110.5c-2.8-2.9-5.4-5.6-6.7-7.2c-2-2.3-4.3-5-6.2-7.7c-4.5,2.6-8.5,5.8-8.5,11.4c0,6.3,4.9,9.5,10.3,9.5
		C259.9,116.6,263.5,114,266.3,110.5z M254.1,92.9c5.1-2.7,10-5.3,10-10.6c0-3.9-2.6-5.9-6.1-5.9c-4,0-7.3,3.1-7.3,7.7
		C250.8,86.9,252.2,90,254.1,92.9z"/>
</g>
</svg>
