<?xml version="1.0" encoding="utf-8"?>
<!-- Generator: Adobe Illustrator 18.1.1, SVG Export Plug-In . SVG Version: 6.00 Build 0)  -->
<svg version="1.1" id="Layer_1" xmlns="http://www.w3.org/2000/svg" xmlns:xlink="http://www.w3.org/1999/xlink" x="0px" y="0px"
	 viewBox="0 0 346.8 244.4" enable-background="new 0 0 346.8 244.4" xml:space="preserve">
<g opacity="0.35">
	<polygon fill="#737373" points="2.9,22.9 2.9,3 14.4,22.9 	"/>
	<polygon fill="#707070" points="25.9,3 14.4,22.9 2.9,3 	"/>
	<polygon fill="#777777" points="14.4,22.9 25.9,3 37.3,22.9 	"/>
	<polygon fill="#7D7D7D" points="48.8,3 37.3,22.9 25.9,3 	"/>
	<polygon fill="#818181" points="37.3,22.9 48.8,3 60.3,22.9 	"/>
	<polygon fill="#8C8C8C" points="71.8,3 60.3,22.9 48.8,3 	"/>
	<polygon fill="#8C8C8C" points="60.3,22.9 71.8,3 83.3,22.9 	"/>
	<polygon fill="#959595" points="94.8,3 83.3,22.9 71.8,3 	"/>
	<polygon fill="#999999" points="83.3,22.9 94.8,3 106.2,22.9 	"/>
	<polygon fill="#9A9A9A" points="117.7,3 106.2,22.9 94.8,3 	"/>
	<polygon fill="#A1A1A1" points="106.2,22.9 117.7,3 129.2,22.9 	"/>
	<polygon fill="#AFAFAF" points="140.7,3 129.2,22.9 117.7,3 	"/>
	<polygon fill="#C6C6C6" points="129.2,22.9 140.7,3 152.2,22.9 	"/>
	<polygon fill="#C6C6C6" points="163.6,3 152.2,22.9 140.7,3 	"/>
	<polygon fill="#CDCDCD" points="152.2,22.9 163.6,3 175.1,22.9 	"/>
	<polygon fill="#C7C7C7" points="186.6,3 175.1,22.9 163.6,3 	"/>
	<polygon fill="#C7C7C7" points="175.1,22.9 186.6,3 198.1,22.9 	"/>
	<polygon fill="#C7C7C7" points="209.6,3 198.1,22.9 186.6,3 	"/>
	<polygon fill="#C7C7C7" points="198.1,22.9 209.6,3 221.1,22.9 	"/>
	<polygon fill="#C6C6C6" points="232.5,3 221.1,22.9 209.6,3 	"/>
	<polygon fill="#C4C4C4" points="221.1,22.9 232.5,3 244,22.9 	"/>
	<polygon fill="#BCBCBC" points="255.5,3 244,22.9 232.5,3 	"/>
	<polygon fill="#BBBBBB" points="244,22.9 255.5,3 267,22.9 	"/>
	<polygon fill="#B2B2B2" points="278.5,3 267,22.9 255.5,3 	"/>
	<polygon fill="#9B9B9B" points="267,22.9 278.5,3 289.9,22.9 	"/>
	<polygon fill="#8C8C8C" points="301.4,3 289.9,22.9 278.5,3 	"/>
	<polygon fill="#898989" points="289.9,22.9 301.4,3 312.9,22.9 	"/>
	<polygon fill="#888888" points="324.4,3 312.9,22.9 301.4,3 	"/>
	<polygon fill="#8C8C8C" points="312.9,22.9 324.4,3 335.9,22.9 	"/>
	<polygon fill="#898989" points="335.9,3 335.9,22.9 324.4,3 	"/>
	<polygon fill="#747474" points="14.4,22.9 2.9,42.8 2.9,22.9 	"/>
	<polygon fill="#787878" points="2.9,42.8 14.4,22.9 25.9,42.8 	"/>
	<polygon fill="#808080" points="37.3,22.9 25.9,42.8 14.4,22.9 	"/>
	<polygon fill="#848484" points="25.9,42.8 37.3,22.9 48.8,42.8 	"/>
	<polygon fill="#848484" points="60.3,22.9 48.8,42.8 37.3,22.9 	"/>
	<polygon fill="#939393" points="48.8,42.8 60.3,22.9 71.8,42.8 	"/>
	<polygon fill="#8F8F8F" points="83.3,22.9 71.8,42.8 60.3,22.9 	"/>
	<polygon fill="#959595" points="71.8,42.8 83.3,22.9 94.8,42.8 	"/>
	<polygon fill="#929292" points="106.2,22.9 94.8,42.8 83.3,22.9 	"/>
	<polygon fill="#A6A6A6" points="94.8,42.8 106.2,22.9 117.7,42.8 	"/>
	<polygon fill="#B6B6B6" points="129.2,22.9 117.7,42.8 106.2,22.9 	"/>
	<polygon fill="#BFBFBF" points="117.7,42.8 129.2,22.9 140.7,42.8 	"/>
	<polygon fill="#CBCBCB" points="152.2,22.9 140.7,42.8 129.2,22.9 	"/>
	<polygon fill="#CFCFCF" points="140.7,42.8 152.2,22.9 163.6,42.8 	"/>
	<polygon fill="#D0D0D0" points="175.1,22.9 163.6,42.8 152.2,22.9 	"/>
	<polygon fill="#D1D1D1" points="163.6,42.8 175.1,22.9 186.6,42.8 	"/>
	<polygon fill="#D0D0D0" points="198.1,22.9 186.6,42.8 175.1,22.9 	"/>
	<polygon fill="#D1D1D1" points="186.6,42.8 198.1,22.9 209.6,42.8 	"/>
	<polygon fill="#CCCCCC" points="221.1,22.9 209.6,42.8 198.1,22.9 	"/>
	<polygon fill="#D5D5D5" points="209.6,42.8 221.1,22.9 232.5,42.8 	"/>
	<polygon fill="#D0D0D0" points="244,22.9 232.5,42.8 221.1,22.9 	"/>
	<polygon fill="#CDCDCD" points="232.5,42.8 244,22.9 255.5,42.8 	"/>
	<polygon fill="#CDCDCD" points="267,22.9 255.5,42.8 244,22.9 	"/>
	<polygon fill="#C4C4C4" points="255.5,42.8 267,22.9 278.5,42.8 	"/>
	<polygon fill="#B3B3B3" points="289.9,22.9 278.5,42.8 267,22.9 	"/>
	<polygon fill="#9F9F9F" points="278.5,42.8 289.9,22.9 301.4,42.8 	"/>
	<polygon fill="#989898" points="312.9,22.9 301.4,42.8 289.9,22.9 	"/>
	<polygon fill="#979797" points="301.4,42.8 312.9,22.9 324.4,42.8 	"/>
	<polygon fill="#979797" points="335.9,22.9 324.4,42.8 312.9,22.9 	"/>
	<polygon fill="#929292" points="324.4,42.8 335.9,22.9 335.9,42.8 	"/>
	<polygon fill="#7C7C7C" points="2.9,62.7 2.9,42.8 14.4,62.7 	"/>
	<polygon fill="#7C7C7C" points="25.9,42.8 14.4,62.7 2.9,42.8 	"/>
	<polygon fill="#808080" points="14.4,62.7 25.9,42.8 37.3,62.7 	"/>
	<polygon fill="#868686" points="48.8,42.8 37.3,62.7 25.9,42.8 	"/>
	<polygon fill="#8A8A8A" points="37.3,62.7 48.8,42.8 60.3,62.7 	"/>
	<polygon fill="#939393" points="71.8,42.8 60.3,62.7 48.8,42.8 	"/>
	<polygon fill="#959595" points="60.3,62.7 71.8,42.8 83.3,62.7 	"/>
	<polygon fill="#9A9A9A" points="94.8,42.8 83.3,62.7 71.8,42.8 	"/>
	<polygon fill="#A8A8A8" points="83.3,62.7 94.8,42.8 106.2,62.7 	"/>
	<polygon fill="#AFAFAF" points="117.7,42.8 106.2,62.7 94.8,42.8 	"/>
	<polygon fill="#B8B8B8" points="106.2,62.7 117.7,42.8 129.2,62.7 	"/>
	<polygon fill="#BFBFBF" points="140.7,42.8 129.2,62.7 117.7,42.8 	"/>
	<polygon fill="#D2D2D2" points="129.2,62.7 140.7,42.8 152.2,62.7 	"/>
	<polygon fill="#D1D1D1" points="163.6,42.8 152.2,62.7 140.7,42.8 	"/>
	<polygon fill="#D2D2D2" points="152.2,62.7 163.6,42.8 175.1,62.7 	"/>
	<polygon fill="#D2D2D2" points="186.6,42.8 175.1,62.7 163.6,42.8 	"/>
	<polygon fill="#D6D6D6" points="175.1,62.7 186.6,42.8 198.1,62.7 	"/>
	<polygon fill="#D6D6D6" points="209.6,42.8 198.1,62.7 186.6,42.8 	"/>
	<polygon fill="#D6D6D6" points="198.1,62.7 209.6,42.8 221.1,62.7 	"/>
	<polygon fill="#D5D5D5" points="232.5,42.8 221.1,62.7 209.6,42.8 	"/>
	<polygon fill="#CDCDCD" points="221.1,62.7 232.5,42.8 244,62.7 	"/>
	<polygon fill="#CBCBCB" points="255.5,42.8 244,62.7 232.5,42.8 	"/>
	<polygon fill="#C0C0C0" points="244,62.7 255.5,42.8 267,62.7 	"/>
	<polygon fill="#C0C0C0" points="278.5,42.8 267,62.7 255.5,42.8 	"/>
	<polygon fill="#C0C0C0" points="267,62.7 278.5,42.8 289.9,62.7 	"/>
	<polygon fill="#B3B3B3" points="301.4,42.8 289.9,62.7 278.5,42.8 	"/>
	<polygon fill="#919191" points="289.9,62.7 301.4,42.8 312.9,62.7 	"/>
	<polygon fill="#8E8E8E" points="324.4,42.8 312.9,62.7 301.4,42.8 	"/>
	<polygon fill="#8E8E8E" points="312.9,62.7 324.4,42.8 335.9,62.7 	"/>
	<polygon fill="#8E8E8E" points="335.9,42.8 335.9,62.7 324.4,42.8 	"/>
	<polygon fill="#7C7C7C" points="14.4,62.7 2.9,82.5 2.9,62.7 	"/>
	<polygon fill="#7C7C7C" points="2.9,82.5 14.4,62.7 25.9,82.5 	"/>
	<polygon fill="#7D7D7D" points="37.3,62.7 25.9,82.5 14.4,62.7 	"/>
	<polygon fill="#838383" points="25.9,82.5 37.3,62.7 48.8,82.5 	"/>
	<polygon fill="#8C8C8C" points="60.3,62.7 48.8,82.5 37.3,62.7 	"/>
	<polygon fill="#909090" points="48.8,82.5 60.3,62.7 71.8,82.5 	"/>
	<polygon fill="#959595" points="83.3,62.7 71.8,82.5 60.3,62.7 	"/>
	<polygon fill="#9C9C9C" points="71.8,82.5 83.3,62.7 94.8,82.5 	"/>
	<polygon fill="#B1B1B1" points="106.2,62.7 94.8,82.5 83.3,62.7 	"/>
	<polygon fill="#B8B8B8" points="94.8,82.5 106.2,62.7 117.7,82.5 	"/>
	<polygon fill="#B9B9B9" points="129.2,62.7 117.7,82.5 106.2,62.7 	"/>
	<polygon fill="#BCBCBC" points="117.7,82.5 129.2,62.7 140.7,82.5 	"/>
	<polygon fill="#D2D2D2" points="152.2,62.7 140.7,82.5 129.2,62.7 	"/>
	<polygon fill="#D2D2D2" points="140.7,82.5 152.2,62.7 163.6,82.5 	"/>
	<polygon fill="#D3D3D3" points="175.1,62.7 163.6,82.5 152.2,62.7 	"/>
	<polygon fill="#D6D6D6" points="163.6,82.5 175.1,62.7 186.6,82.5 	"/>
	<polygon fill="#D7D7D7" points="198.1,62.7 186.6,82.5 175.1,62.7 	"/>
	<polygon fill="#D7D7D7" points="186.6,82.5 198.1,62.7 209.6,82.5 	"/>
	<polygon fill="#D6D6D6" points="221.1,62.7 209.6,82.5 198.1,62.7 	"/>
	<polygon fill="#D1D1D1" points="209.6,82.5 221.1,62.7 232.5,82.5 	"/>
	<polygon fill="#C7C7C7" points="244,62.7 232.5,82.5 221.1,62.7 	"/>
	<polygon fill="#C0C0C0" points="232.5,82.5 244,62.7 255.5,82.5 	"/>
	<polygon fill="#C0C0C0" points="267,62.7 255.5,82.5 244,62.7 	"/>
	<polygon fill="#BFBFBF" points="255.5,82.5 267,62.7 278.5,82.5 	"/>
	<polygon fill="#BFBFBF" points="289.9,62.7 278.5,82.5 267,62.7 	"/>
	<polygon fill="#B9B9B9" points="278.5,82.5 289.9,62.7 301.4,82.5 	"/>
	<polygon fill="#9F9F9F" points="312.9,62.7 301.4,82.5 289.9,62.7 	"/>
	<polygon fill="#989898" points="301.4,82.5 312.9,62.7 324.4,82.5 	"/>
	<polygon fill="#8D8D8D" points="335.9,62.7 324.4,82.5 312.9,62.7 	"/>
	<polygon fill="#898989" points="324.4,82.5 335.9,62.7 335.9,82.5 	"/>
	<polygon fill="#787878" points="2.9,102.4 2.9,82.5 14.4,102.4 	"/>
	<polygon fill="#7A7A7A" points="25.9,82.5 14.4,102.4 2.9,82.5 	"/>
	<polygon fill="#787878" points="14.4,102.4 25.9,82.5 37.3,102.4 	"/>
	<polygon fill="#7F7F7F" points="48.8,82.5 37.3,102.4 25.9,82.5 	"/>
	<polygon fill="#8C8C8C" points="37.3,102.4 48.8,82.5 60.3,102.4 	"/>
	<polygon fill="#919191" points="71.8,82.5 60.3,102.4 48.8,82.5 	"/>
	<polygon fill="#959595" points="60.3,102.4 71.8,82.5 83.3,102.4 	"/>
	<polygon fill="#A0A0A0" points="94.8,82.5 83.3,102.4 71.8,82.5 	"/>
	<polygon fill="#A8A8A8" points="83.3,102.4 94.8,82.5 106.2,102.4 	"/>
	<polygon fill="#AFAFAF" points="117.7,82.5 106.2,102.4 94.8,82.5 	"/>
	<polygon fill="#B7B7B7" points="106.2,102.4 117.7,82.5 129.2,102.4 	"/>
	<polygon fill="#BCBCBC" points="140.7,82.5 129.2,102.4 117.7,82.5 	"/>
	<polygon fill="#D1D1D1" points="129.2,102.4 140.7,82.5 152.2,102.4 	"/>
	<polygon fill="#D2D2D2" points="163.6,82.5 152.2,102.4 140.7,82.5 	"/>
	<polygon fill="#D6D6D6" points="152.2,102.4 163.6,82.5 175.1,102.4 	"/>
	<polygon fill="#D6D6D6" points="186.6,82.5 175.1,102.4 163.6,82.5 	"/>
	<polygon fill="#D7D7D7" points="175.1,102.4 186.6,82.5 198.1,102.4 	"/>
	<polygon fill="#D7D7D7" points="209.6,82.5 198.1,102.4 186.6,82.5 	"/>
	<polygon fill="#D7D7D7" points="198.1,102.4 209.6,82.5 221.1,102.4 	"/>
	<polygon fill="#D1D1D1" points="232.5,82.5 221.1,102.4 209.6,82.5 	"/>
	<polygon fill="#CBCBCB" points="221.1,102.4 232.5,82.5 244,102.4 	"/>
	<polygon fill="#C1C1C1" points="255.5,82.5 244,102.4 232.5,82.5 	"/>
	<polygon fill="#C0C0C0" points="244,102.4 255.5,82.5 267,102.4 	"/>
	<polygon fill="#BFBFBF" points="278.5,82.5 267,102.4 255.5,82.5 	"/>
	<polygon fill="#BFBFBF" points="267,102.4 278.5,82.5 289.9,102.4 	"/>
	<polygon fill="#B8B8B8" points="301.4,82.5 289.9,102.4 278.5,82.5 	"/>
	<polygon fill="#A2A2A2" points="289.9,102.4 301.4,82.5 312.9,102.4 	"/>
	<polygon fill="#9F9F9F" points="324.4,82.5 312.9,102.4 301.4,82.5 	"/>
	<polygon fill="#8D8D8D" points="312.9,102.4 324.4,82.5 335.9,102.4 	"/>
	<polygon fill="#878787" points="335.9,82.5 335.9,102.4 324.4,82.5 	"/>
	<polygon fill="#767676" points="14.4,102.4 2.9,122.3 2.9,102.4 	"/>
	<polygon fill="#767676" points="2.9,122.3 14.4,102.4 25.9,122.3 	"/>
	<polygon fill="#777777" points="37.3,102.4 25.9,122.3 14.4,102.4 	"/>
	<polygon fill="#787878" points="25.9,122.3 37.3,102.4 48.8,122.3 	"/>
	<polygon fill="#818181" points="60.3,102.4 48.8,122.3 37.3,102.4 	"/>
	<polygon fill="#8B8B8B" points="48.8,122.3 60.3,102.4 71.8,122.3 	"/>
	<polygon fill="#919191" points="83.3,102.4 71.8,122.3 60.3,102.4 	"/>
	<polygon fill="#A1A1A1" points="71.8,122.3 83.3,102.4 94.8,122.3 	"/>
	<polygon fill="#A8A8A8" points="106.2,102.4 94.8,122.3 83.3,102.4 	"/>
	<polygon fill="#A8A8A8" points="94.8,122.3 106.2,102.4 117.7,122.3 	"/>
	<polygon fill="#ADADAD" points="129.2,102.4 117.7,122.3 106.2,102.4 	"/>
	<polygon fill="#B6B6B6" points="117.7,122.3 129.2,102.4 140.7,122.3 	"/>
	<polygon fill="#D1D1D1" points="152.2,102.4 140.7,122.3 129.2,102.4 	"/>
	<polygon fill="#D6D6D6" points="140.7,122.3 152.2,102.4 163.6,122.3 	"/>
	<polygon fill="#D6D6D6" points="175.1,102.4 163.6,122.3 152.2,102.4 	"/>
	<polygon fill="#D6D6D6" points="163.6,122.3 175.1,102.4 186.6,122.3 	"/>
	<polygon fill="#D7D7D7" points="198.1,102.4 186.6,122.3 175.1,102.4 	"/>
	<polygon fill="#D7D7D7" points="186.6,122.3 198.1,102.4 209.6,122.3 	"/>
	<polygon fill="#D7D7D7" points="221.1,102.4 209.6,122.3 198.1,102.4 	"/>
	<polygon fill="#D7D7D7" points="209.6,122.3 221.1,102.4 232.5,122.3 	"/>
	<polygon fill="#D0D0D0" points="244,102.4 232.5,122.3 221.1,102.4 	"/>
	<polygon fill="#CDCDCD" points="232.5,122.3 244,102.4 255.5,122.3 	"/>
	<polygon fill="#CCCCCC" points="267,102.4 255.5,122.3 244,102.4 	"/>
	<polygon fill="#CCCCCC" points="255.5,122.3 267,102.4 278.5,122.3 	"/>
	<polygon fill="#C3C3C3" points="289.9,102.4 278.5,122.3 267,102.4 	"/>
	<polygon fill="#B7B7B7" points="278.5,122.3 289.9,102.4 301.4,122.3 	"/>
	<polygon fill="#999999" points="312.9,102.4 301.4,122.3 289.9,102.4 	"/>
	<polygon fill="#959595" points="301.4,122.3 312.9,102.4 324.4,122.3 	"/>
	<polygon fill="#929292" points="335.9,102.4 324.4,122.3 312.9,102.4 	"/>
	<polygon fill="#949494" points="324.4,122.3 335.9,102.4 335.9,122.3 	"/>
	<polygon fill="#787878" points="2.9,142.2 2.9,122.3 14.4,142.2 	"/>
	<polygon fill="#787878" points="25.9,122.3 14.4,142.2 2.9,122.3 	"/>
	<polygon fill="#787878" points="14.4,142.2 25.9,122.3 37.3,142.2 	"/>
	<polygon fill="#787878" points="48.8,122.3 37.3,142.2 25.9,122.3 	"/>
	<polygon fill="#787878" points="37.3,142.2 48.8,122.3 60.3,142.2 	"/>
	<polygon fill="#888888" points="71.8,122.3 60.3,142.2 48.8,122.3 	"/>
	<polygon fill="#8D8D8D" points="60.3,142.2 71.8,122.3 83.3,142.2 	"/>
	<polygon fill="#979797" points="94.8,122.3 83.3,142.2 71.8,122.3 	"/>
	<polygon fill="#9F9F9F" points="83.3,142.2 94.8,122.3 106.2,142.2 	"/>
	<polygon fill="#A2A2A2" points="117.7,122.3 106.2,142.2 94.8,122.3 	"/>
	<polygon fill="#A1A1A1" points="106.2,142.2 117.7,122.3 129.2,142.2 	"/>
	<polygon fill="#AAAAAA" points="140.7,122.3 129.2,142.2 117.7,122.3 	"/>
	<polygon fill="#CBCBCB" points="129.2,142.2 140.7,122.3 152.2,142.2 	"/>
	<polygon fill="#D4D4D4" points="163.6,122.3 152.2,142.2 140.7,122.3 	"/>
	<polygon fill="#CECECE" points="152.2,142.2 163.6,122.3 175.1,142.2 	"/>
	<polygon fill="#D4D4D4" points="186.6,122.3 175.1,142.2 163.6,122.3 	"/>
	<polygon fill="#D3D3D3" points="175.1,142.2 186.6,122.3 198.1,142.2 	"/>
	<polygon fill="#D6D6D6" points="209.6,122.3 198.1,142.2 186.6,122.3 	"/>
	<polygon fill="#D6D6D6" points="198.1,142.2 209.6,122.3 221.1,142.2 	"/>
	<polygon fill="#D7D7D7" points="232.5,122.3 221.1,142.2 209.6,122.3 	"/>
	<polygon fill="#D1D1D1" points="221.1,142.2 232.5,122.3 244,142.2 	"/>
	<polygon fill="#C6C6C6" points="255.5,122.3 244,142.2 232.5,122.3 	"/>
	<polygon fill="#BCBCBC" points="244,142.2 255.5,122.3 267,142.2 	"/>
	<polygon fill="#BFBFBF" points="278.5,122.3 267,142.2 255.5,122.3 	"/>
	<polygon fill="#BBBBBB" points="267,142.2 278.5,122.3 289.9,142.2 	"/>
	<polygon fill="#ACACAC" points="301.4,122.3 289.9,142.2 278.5,122.3 	"/>
	<polygon fill="#9D9D9D" points="289.9,142.2 301.4,122.3 312.9,142.2 	"/>
	<polygon fill="#999999" points="324.4,122.3 312.9,142.2 301.4,122.3 	"/>
	<polygon fill="#9A9A9A" points="312.9,142.2 324.4,122.3 335.9,142.2 	"/>
	<polygon fill="#969696" points="335.9,122.3 335.9,142.2 324.4,122.3 	"/>
	<polygon fill="#787878" points="14.4,142.2 2.9,162.1 2.9,142.2 	"/>
	<polygon fill="#787878" points="2.9,162.1 14.4,142.2 25.9,162.1 	"/>
	<polygon fill="#787878" points="37.3,142.2 25.9,162.1 14.4,142.2 	"/>
	<polygon fill="#787878" points="25.9,162.1 37.3,142.2 48.8,162.1 	"/>
	<polygon fill="#787878" points="60.3,142.2 48.8,162.1 37.3,142.2 	"/>
	<polygon fill="#7C7C7C" points="48.8,162.1 60.3,142.2 71.8,162.1 	"/>
	<polygon fill="#8C8C8C" points="83.3,142.2 71.8,162.1 60.3,142.2 	"/>
	<polygon fill="#8F8F8F" points="71.8,162.1 83.3,142.2 94.8,162.1 	"/>
	<polygon fill="#9F9F9F" points="106.2,142.2 94.8,162.1 83.3,142.2 	"/>
	<polygon fill="#A5A5A5" points="94.8,162.1 106.2,142.2 117.7,162.1 	"/>
	<polygon fill="#A7A7A7" points="129.2,142.2 117.7,162.1 106.2,142.2 	"/>
	<polygon fill="#B3B3B3" points="117.7,162.1 129.2,142.2 140.7,162.1 	"/>
	<polygon fill="#BBBBBB" points="152.2,142.2 140.7,162.1 129.2,142.2 	"/>
	<polygon fill="#C7C7C7" points="140.7,162.1 152.2,142.2 163.6,162.1 	"/>
	<polygon fill="#CDCDCD" points="175.1,142.2 163.6,162.1 152.2,142.2 	"/>
	<polygon fill="#D2D2D2" points="163.6,162.1 175.1,142.2 186.6,162.1 	"/>
	<polygon fill="#D2D2D2" points="198.1,142.2 186.6,162.1 175.1,142.2 	"/>
	<polygon fill="#D0D0D0" points="186.6,162.1 198.1,142.2 209.6,162.1 	"/>
	<polygon fill="#CFCFCF" points="221.1,142.2 209.6,162.1 198.1,142.2 	"/>
	<polygon fill="#CECECE" points="209.6,162.1 221.1,142.2 232.5,162.1 	"/>
	<polygon fill="#CCCCCC" points="244,142.2 232.5,162.1 221.1,142.2 	"/>
	<polygon fill="#CBCBCB" points="232.5,162.1 244,142.2 255.5,162.1 	"/>
	<polygon fill="#BFBFBF" points="267,142.2 255.5,162.1 244,142.2 	"/>
	<polygon fill="#BCBCBC" points="255.5,162.1 267,142.2 278.5,162.1 	"/>
	<polygon fill="#B8B8B8" points="289.9,142.2 278.5,162.1 267,142.2 	"/>
	<polygon fill="#9F9F9F" points="278.5,162.1 289.9,142.2 301.4,162.1 	"/>
	<polygon fill="#9E9E9E" points="312.9,142.2 301.4,162.1 289.9,142.2 	"/>
	<polygon fill="#9B9B9B" points="301.4,162.1 312.9,142.2 324.4,162.1 	"/>
	<polygon fill="#9B9B9B" points="335.9,142.2 324.4,162.1 312.9,142.2 	"/>
	<polygon fill="#949494" points="324.4,162.1 335.9,142.2 335.9,162.1 	"/>
	<polygon fill="#6A6A6A" points="2.9,182 2.9,162.1 14.4,182 	"/>
	<polygon fill="#727272" points="25.9,162.1 14.4,182 2.9,162.1 	"/>
	<polygon fill="#6C6C6C" points="14.4,182 25.9,162.1 37.3,182 	"/>
	<polygon fill="#747474" points="48.8,162.1 37.3,182 25.9,162.1 	"/>
	<polygon fill="#6E6E6E" points="37.3,182 48.8,162.1 60.3,182 	"/>
	<polygon fill="#777777" points="71.8,162.1 60.3,182 48.8,162.1 	"/>
	<polygon fill="#7E7E7E" points="60.3,182 71.8,162.1 83.3,182 	"/>
	<polygon fill="#8A8A8A" points="94.8,162.1 83.3,182 71.8,162.1 	"/>
	<polygon fill="#979797" points="83.3,182 94.8,162.1 106.2,182 	"/>
	<polygon fill="#ADADAD" points="117.7,162.1 106.2,182 94.8,162.1 	"/>
	<polygon fill="#A8A8A8" points="106.2,182 117.7,162.1 129.2,182 	"/>
	<polygon fill="#B1B1B1" points="140.7,162.1 129.2,182 117.7,162.1 	"/>
	<polygon fill="#ADADAD" points="129.2,182 140.7,162.1 152.2,182 	"/>
	<polygon fill="#BBBBBB" points="163.6,162.1 152.2,182 140.7,162.1 	"/>
	<polygon fill="#CBCBCB" points="152.2,182 163.6,162.1 175.1,182 	"/>
	<polygon fill="#D0D0D0" points="186.6,162.1 175.1,182 163.6,162.1 	"/>
	<polygon fill="#CDCDCD" points="175.1,182 186.6,162.1 198.1,182 	"/>
	<polygon fill="#CECECE" points="209.6,162.1 198.1,182 186.6,162.1 	"/>
	<polygon fill="#CECECE" points="198.1,182 209.6,162.1 221.1,182 	"/>
	<polygon fill="#CECECE" points="232.5,162.1 221.1,182 209.6,162.1 	"/>
	<polygon fill="#CECECE" points="221.1,182 232.5,162.1 244,182 	"/>
	<polygon fill="#CECECE" points="255.5,162.1 244,182 232.5,162.1 	"/>
	<polygon fill="#CECECE" points="244,182 255.5,162.1 267,182 	"/>
	<polygon fill="#C5C5C5" points="278.5,162.1 267,182 255.5,162.1 	"/>
	<polygon fill="#AAAAAA" points="267,182 278.5,162.1 289.9,182 	"/>
	<polygon fill="#9B9B9B" points="301.4,162.1 289.9,182 278.5,162.1 	"/>
	<polygon fill="#919191" points="289.9,182 301.4,162.1 312.9,182 	"/>
	<polygon fill="#919191" points="324.4,162.1 312.9,182 301.4,162.1 	"/>
	<polygon fill="#8E8E8E" points="312.9,182 324.4,162.1 335.9,182 	"/>
	<polygon fill="#909090" points="335.9,162.1 335.9,182 324.4,162.1 	"/>
	<polygon fill="#5D5D5D" points="14.4,182 2.9,201.9 2.9,182 	"/>
	<polygon fill="#595959" points="2.9,201.9 14.4,182 25.9,201.9 	"/>
	<polygon fill="#6A6A6A" points="37.3,182 25.9,201.9 14.4,182 	"/>
	<polygon fill="#6A6A6A" points="25.9,201.9 37.3,182 48.8,201.9 	"/>
	<polygon fill="#6F6F6F" points="60.3,182 48.8,201.9 37.3,182 	"/>
	<polygon fill="#727272" points="48.8,201.9 60.3,182 71.8,201.9 	"/>
	<polygon fill="#7B7B7B" points="83.3,182 71.8,201.9 60.3,182 	"/>
	<polygon fill="#7C7C7C" points="71.8,201.9 83.3,182 94.8,201.9 	"/>
	<polygon fill="#848484" points="106.2,182 94.8,201.9 83.3,182 	"/>
	<polygon fill="#989898" points="94.8,201.9 106.2,182 117.7,201.9 	"/>
	<polygon fill="#A1A1A1" points="129.2,182 117.7,201.9 106.2,182 	"/>
	<polygon fill="#A1A1A1" points="117.7,201.9 129.2,182 140.7,201.9 	"/>
	<polygon fill="#A2A2A2" points="152.2,182 140.7,201.9 129.2,182 	"/>
	<polygon fill="#B1B1B1" points="140.7,201.9 152.2,182 163.6,201.9 	"/>
	<polygon fill="#BCBCBC" points="175.1,182 163.6,201.9 152.2,182 	"/>
	<polygon fill="#C8C8C8" points="163.6,201.9 175.1,182 186.6,201.9 	"/>
	<polygon fill="#CECECE" points="198.1,182 186.6,201.9 175.1,182 	"/>
	<polygon fill="#C9C9C9" points="186.6,201.9 198.1,182 209.6,201.9 	"/>
	<polygon fill="#CCCCCC" points="221.1,182 209.6,201.9 198.1,182 	"/>
	<polygon fill="#C1C1C1" points="209.6,201.9 221.1,182 232.5,201.9 	"/>
	<polygon fill="#C7C7C7" points="244,182 232.5,201.9 221.1,182 	"/>
	<polygon fill="#BCBCBC" points="232.5,201.9 244,182 255.5,201.9 	"/>
	<polygon fill="#BEBEBE" points="267,182 255.5,201.9 244,182 	"/>
	<polygon fill="#B6B6B6" points="255.5,201.9 267,182 278.5,201.9 	"/>
	<polygon fill="#9E9E9E" points="289.9,182 278.5,201.9 267,182 	"/>
	<polygon fill="#979797" points="278.5,201.9 289.9,182 301.4,201.9 	"/>
	<polygon fill="#919191" points="312.9,182 301.4,201.9 289.9,182 	"/>
	<polygon fill="#909090" points="301.4,201.9 312.9,182 324.4,201.9 	"/>
	<polygon fill="#858585" points="335.9,182 324.4,201.9 312.9,182 	"/>
	<polygon fill="#7D7D7D" points="324.4,201.9 335.9,182 335.9,201.9 	"/>
	<polygon fill="#444444" points="2.9,221.7 2.9,201.9 14.4,221.8 	"/>
	<polygon fill="#4C4C4C" points="25.9,201.9 14.4,221.8 2.9,201.9 	"/>
	<polygon fill="#575757" points="14.4,221.8 25.9,201.9 37.3,221.8 	"/>
	<polygon fill="#5B5B5B" points="48.8,201.9 37.3,221.8 25.9,201.9 	"/>
	<polygon fill="#5A5A5A" points="37.3,221.8 48.8,201.9 60.3,221.8 	"/>
	<polygon fill="#6A6A6A" points="71.8,201.9 60.3,221.8 48.8,201.9 	"/>
	<polygon fill="#6D6D6D" points="60.3,221.8 71.8,201.9 83.3,221.8 	"/>
	<polygon fill="#7C7C7C" points="94.8,201.9 83.3,221.8 71.8,201.9 	"/>
	<polygon fill="#7D7D7D" points="83.3,221.8 94.8,201.9 106.2,221.8 	"/>
	<polygon fill="#898989" points="117.7,201.9 106.2,221.8 94.8,201.9 	"/>
	<polygon fill="#9D9D9D" points="106.2,221.8 117.7,201.9 129.2,221.7 	"/>
	<polygon fill="#A3A3A3" points="140.7,201.9 129.2,221.7 117.7,201.9 	"/>
	<polygon fill="#AFAFAF" points="129.2,221.7 140.7,201.9 152.2,221.8 	"/>
	<polygon fill="#AFAFAF" points="163.6,201.9 152.2,221.8 140.7,201.9 	"/>
	<polygon fill="#ADADAD" points="152.2,221.8 163.6,201.9 175.1,221.8 	"/>
	<polygon fill="#B5B5B5" points="186.6,201.9 175.1,221.8 163.6,201.9 	"/>
	<polygon fill="#B3B3B3" points="175.1,221.8 186.6,201.9 198.1,221.8 	"/>
	<polygon fill="#B9B9B9" points="209.6,201.9 198.1,221.8 186.6,201.9 	"/>
	<polygon fill="#B8B8B8" points="198.1,221.8 209.6,201.9 221.1,221.8 	"/>
	<polygon fill="#BABABA" points="232.5,201.9 221.1,221.8 209.6,201.9 	"/>
	<polygon fill="#BABABA" points="221.1,221.8 232.5,201.9 244,221.8 	"/>
	<polygon fill="#BBBBBB" points="255.5,201.9 244,221.8 232.5,201.9 	"/>
	<polygon fill="#BBBBBB" points="244,221.8 255.5,201.9 267,221.8 	"/>
	<polygon fill="#B4B4B4" points="278.5,201.9 267,221.8 255.5,201.9 	"/>
	<polygon fill="#9B9B9B" points="267,221.8 278.5,201.9 289.9,221.8 	"/>
	<polygon fill="#999999" points="301.4,201.9 289.9,221.8 278.5,201.9 	"/>
	<polygon fill="#959595" points="289.9,221.8 301.4,201.9 312.9,221.7 	"/>
	<polygon fill="#8C8C8C" points="324.4,201.9 312.9,221.7 301.4,201.9 	"/>
	<polygon fill="#737373" points="312.9,221.7 324.4,201.9 335.9,221.8 	"/>
	<polygon fill="#787878" points="335.9,201.9 335.9,221.8 324.4,201.9 	"/>
	<polygon fill="#444444" points="14.4,221.8 2.9,241.6 2.9,221.7 	"/>
	<polygon fill="#444444" points="2.9,241.6 14.4,221.8 25.9,241.6 	"/>
	<polygon fill="#505050" points="37.3,221.8 25.9,241.6 14.4,221.8 	"/>
	<polygon fill="#5A5A5A" points="25.9,241.6 37.3,221.8 48.8,241.6 	"/>
	<polygon fill="#5C5C5C" points="60.3,221.8 48.8,241.6 37.3,221.8 	"/>
	<polygon fill="#636363" points="48.8,241.6 60.3,221.8 71.8,241.6 	"/>
	<polygon fill="#636363" points="83.3,221.8 71.8,241.6 60.3,221.8 	"/>
	<polygon fill="#636363" points="71.8,241.6 83.3,221.8 94.8,241.6 	"/>
	<polygon fill="#6A6A6A" points="106.2,221.8 94.8,241.6 83.3,221.8 	"/>
	<polygon fill="#6A6A6A" points="94.8,241.6 106.2,221.8 117.7,241.6 	"/>
	<polygon fill="#909090" points="129.2,221.7 117.7,241.6 106.2,221.8 	"/>
	<polygon fill="#999999" points="117.7,241.6 129.2,221.7 140.7,241.6 	"/>
	<polygon fill="#A5A5A5" points="152.2,221.8 140.7,241.6 129.2,221.7 	"/>
	<polygon fill="#A6A6A6" points="140.7,241.6 152.2,221.8 163.6,241.6 	"/>
	<polygon fill="#B0B0B0" points="175.1,221.8 163.6,241.6 152.2,221.8 	"/>
	<polygon fill="#B1B1B1" points="163.6,241.6 175.1,221.8 186.6,241.6 	"/>
	<polygon fill="#B2B2B2" points="198.1,221.8 186.6,241.6 175.1,221.8 	"/>
	<polygon fill="#B2B2B2" points="186.6,241.6 198.1,221.8 209.6,241.6 	"/>
	<polygon fill="#B4B4B4" points="221.1,221.8 209.6,241.6 198.1,221.8 	"/>
	<polygon fill="#B5B5B5" points="209.6,241.6 221.1,221.8 232.5,241.6 	"/>
	<polygon fill="#B7B7B7" points="244,221.8 232.5,241.6 221.1,221.8 	"/>
	<polygon fill="#B6B6B6" points="232.5,241.6 244,221.8 255.5,241.6 	"/>
	<polygon fill="#B4B4B4" points="267,221.8 255.5,241.6 244,221.8 	"/>
	<polygon fill="#9A9A9A" points="255.5,241.6 267,221.8 278.5,241.6 	"/>
	<polygon fill="#8D8D8D" points="289.9,221.8 278.5,241.6 267,221.8 	"/>
	<polygon fill="#8A8A8A" points="278.5,241.6 289.9,221.8 301.4,241.6 	"/>
	<polygon fill="#828282" points="312.9,221.7 301.4,241.6 289.9,221.8 	"/>
	<polygon fill="#747474" points="301.4,241.6 312.9,221.7 324.4,241.6 	"/>
	<polygon fill="#6F6F6F" points="335.9,221.8 324.4,241.6 312.9,221.7 	"/>
	<polygon fill="#6B6B6B" points="324.4,241.6 335.9,221.8 335.9,241.6 	"/>
	<path fill="none" d="M2.9,241.6"/>
	<line fill="none" x1="2.9" y1="241.6" x2="25.9" y2="241.6"/>
	<path fill="none" d="M25.9,241.6"/>
	<line fill="none" x1="25.9" y1="241.6" x2="48.8" y2="241.6"/>
	<path fill="none" d="M48.8,241.6"/>
	<line fill="#636363" x1="48.8" y1="241.6" x2="71.8" y2="241.6"/>
	<path fill="none" d="M71.8,241.6"/>
	<line fill="none" x1="71.8" y1="241.6" x2="94.8" y2="241.6"/>
	<path fill="none" d="M94.8,241.6"/>
	<line fill="#737373" x1="94.8" y1="241.6" x2="117.7" y2="241.6"/>
	<path fill="none" d="M117.7,241.6"/>
	<line fill="#929292" x1="117.7" y1="241.6" x2="140.7" y2="241.6"/>
	<path fill="none" d="M140.7,241.6"/>
	<line fill="#B1B1B1" x1="140.7" y1="241.6" x2="163.6" y2="241.6"/>
	<path fill="none" d="M163.6,241.6"/>
	<line fill="none" x1="163.6" y1="241.6" x2="186.6" y2="241.6"/>
	<path fill="none" d="M186.6,241.6"/>
	<line fill="#B2B2B2" x1="186.6" y1="241.6" x2="209.6" y2="241.6"/>
	<path fill="none" d="M209.6,241.6"/>
	<line fill="none" x1="209.6" y1="241.6" x2="232.5" y2="241.6"/>
	<path fill="none" d="M232.5,241.6"/>
	<line fill="#989898" x1="232.5" y1="241.6" x2="255.5" y2="241.6"/>
	<path fill="none" d="M255.5,241.6"/>
	<line fill="none" x1="255.5" y1="241.6" x2="278.5" y2="241.6"/>
	<path fill="none" d="M278.5,241.6"/>
	<line fill="#747474" x1="278.5" y1="241.6" x2="301.4" y2="241.6"/>
	<path fill="none" d="M301.4,241.6"/>
	<line fill="none" x1="301.4" y1="241.6" x2="324.4" y2="241.6"/>
	<path fill="none" d="M324.4,241.6"/>
	<line fill="#565656" x1="324.4" y1="241.6" x2="335.9" y2="241.6"/>
</g>
</svg>
